<?xml version="1.0" encoding="UTF-8" standalone="no"?>
<!-- Created with Inkscape (http://www.inkscape.org/) -->

<svg
   xmlns:dc="http://purl.org/dc/elements/1.1/"
   xmlns:cc="http://creativecommons.org/ns#"
   xmlns:rdf="http://www.w3.org/1999/02/22-rdf-syntax-ns#"
   xmlns:svg="http://www.w3.org/2000/svg"
   xmlns="http://www.w3.org/2000/svg"
   xmlns:sodipodi="http://sodipodi.sourceforge.net/DTD/sodipodi-0.dtd"
   xmlns:inkscape="http://www.inkscape.org/namespaces/inkscape"
   id="svg2"
   version="1.1"
   inkscape:version="0.91 r13725"
   width="32"
   height="32"
   viewBox="0 0 32 32"
   sodipodi:docname="headline_middle.svg">
  <metadata
     id="metadata8">
    <rdf:RDF>
      <cc:Work
         rdf:about="">
        <dc:format>image/svg+xml</dc:format>
        <dc:type
           rdf:resource="http://purl.org/dc/dcmitype/StillImage" />
        <dc:title></dc:title>
      </cc:Work>
    </rdf:RDF>
  </metadata>
  <defs
     id="defs6" />
  <sodipodi:namedview
     pagecolor="#ffffff"
     bordercolor="#666666"
     borderopacity="1"
     objecttolerance="10"
     gridtolerance="10"
     guidetolerance="10"
     inkscape:pageopacity="0"
     inkscape:pageshadow="2"
     inkscape:window-width="1536"
     inkscape:window-height="801"
     id="namedview4"
     showgrid="false"
     inkscape:zoom="11.8"
     inkscape:cx="10.5"
     inkscape:cy="10"
     inkscape:window-x="-8"
     inkscape:window-y="-8"
     inkscape:window-maximized="1"
     inkscape:current-layer="svg2" />
  <path
     style="opacity:0.98999999;fill:#00599d;fill-opacity:0.97647059;fill-rule:nonzero;stroke:none;stroke-width:1;stroke-miterlimit:4;stroke-dasharray:2, 1;stroke-dashoffset:0"
     d="m 0.15439622,0.18558054 0,31.99999946 31.99999978,0 0,-31.99999946 -31.99999978,0 z M 26.975056,6.1713922 c 0.207361,0 0.381485,0.04644 0.519726,0.141382 0.138241,0.09494 0.250127,0.224315 0.336527,0.388301 0.08641,0.155355 0.146648,0.34179 0.181208,0.557561 0.03456,0.21577 0.05177,0.440022 0.05177,0.673055 0,0.362495 -0.02913,0.730056 -0.08961,1.101182 -0.06048,0.371126 -0.131325,0.707504 -0.209085,1.0095828 -0.0432,0.241664 -0.103447,0.586667 -0.181207,1.03547 -0.06912,0.448804 -0.155187,0.966307 -0.258867,1.553204 -0.09504,0.578267 -0.198321,1.207897 -0.310642,1.889733 -0.11232,0.673205 -0.229505,1.359895 -0.350467,2.058992 -0.11232,0.699099 -0.229505,1.389104 -0.350466,2.070941 -0.112321,0.681835 -0.218909,1.320091 -0.322589,1.915618 -0.09504,0.586897 -0.186406,1.115018 -0.272806,1.581083 -0.07776,0.466065 -0.143306,0.828319 -0.195146,1.087243 -0.02592,0.120832 -0.06895,0.284708 -0.129435,0.491848 -0.05184,0.20714 -0.132607,0.408835 -0.244928,0.607343 -0.103681,0.198509 -0.246685,0.371011 -0.428127,0.517735 -0.1728,0.146724 -0.389958,0.221033 -0.64916,0.221033 -0.13824,0 -0.270648,-0.04313 -0.400249,-0.129433 -0.12096,-0.09494 -0.232846,-0.212374 -0.336527,-0.350467 -0.09504,-0.138093 -0.174491,-0.284719 -0.234972,-0.440075 -0.05184,-0.163986 -0.08097,-0.310612 -0.08961,-0.440075 l 2.696211,-12.790044 c 0.02592,-0.120831 0.04644,-0.22964 0.06372,-0.324579 0.01728,-0.09494 0.02589,-0.184507 0.02589,-0.270816 0,-0.09494 -0.01192,-0.181189 -0.03784,-0.258867 -0.01728,-0.07768 -0.03449,-0.1519858 -0.05177,-0.2210328 -0.02592,-0.07768 -0.05373,-0.146678 -0.07966,-0.207094 -0.388802,0.293448 -0.80722,0.6696348 -1.256503,1.1270688 -0.440641,0.448803 -0.890179,0.952375 -1.348102,1.513379 -0.449282,0.552373 -0.902126,1.144187 -1.360049,1.774238 -0.449283,0.62142 -0.876308,1.247734 -1.282389,1.877785 -0.319682,0.491957 -0.66594,1.009461 -1.037461,1.553204 -0.362883,0.543743 -0.729661,1.092432 -1.101184,1.644805 -0.371522,0.543742 -0.734992,1.090439 -1.089234,1.642812 -0.345602,0.543743 -0.66074,1.066556 -0.945861,1.567144 -0.138242,0.241663 -0.281246,0.552166 -0.428127,0.931923 -0.146881,0.379756 -0.310407,0.750635 -0.491848,1.11313 -0.172801,0.362494 -0.364139,0.672997 -0.5715,0.931923 -0.198721,0.258925 -0.427793,0.388301 -0.686995,0.388301 -0.198721,0 -0.365555,-0.02919 -0.503796,-0.08961 -0.1296,-0.06041 -0.234871,-0.138039 -0.312632,-0.232978 -0.07776,-0.10357 -0.132708,-0.221004 -0.167268,-0.350467 -0.03456,-0.138093 -0.05177,-0.284719 -0.05177,-0.440074 0,-0.198509 0.01721,-0.396886 0.05177,-0.595396 0.0432,-0.198509 0.08623,-0.388261 0.129434,-0.569508 0.181441,-0.759513 0.370787,-1.515203 0.569508,-2.266086 0.198721,-0.750882 0.401973,-1.518514 0.609334,-2.303919 0.216002,-0.785407 0.436466,-1.596164 0.661108,-2.433356 0.224642,-0.845821 0.453712,-1.742829 0.686994,-2.692221 0.06048,-0.267556 0.129334,-0.566117 0.207094,-0.894089 0.07776,-0.336602 0.151913,-0.67298 0.221033,-1.009582 0.06912,-0.345234 0.124068,-0.678295 0.167268,-0.997636 0.0432,-0.319341 0.06571,-0.603968 0.06571,-0.8542618 0,-0.224402 -0.01721,-0.40022 -0.05177,-0.529683 -0.03456,-0.138093 -0.100108,-0.207094 -0.195146,-0.207094 -0.319682,0 -0.655341,0.120751 -1.009582,0.362414 -0.354236,0.233032 -0.714398,0.5435348 -1.07728,0.9319218 -0.362883,0.388388 -0.721054,0.831584 -1.075296,1.332172 -0.354242,0.500589 -0.689901,1.020085 -1.009583,1.555196 -0.319682,0.526481 -0.617607,1.047303 -0.894088,1.565152 -0.276482,0.517851 -0.51416,0.983605 -0.712882,1.397885 -0.0432,0.0863 -0.108745,0.207059 -0.195146,0.362414 -0.07776,0.146725 -0.1863391,0.359034 -0.3245799,0.635222 -0.1296007,0.267555 -0.293127,0.612558 -0.4918482,1.035469 -0.1900811,0.422912 -0.4191529,0.957666 -0.6869943,1.604979 -0.2592016,0.647313 -0.5624254,1.420252 -0.9080274,2.317859 -0.345602,0.897606 -0.7329011,1.949866 -1.1649035,3.158182 -0.07776,0.207141 -0.2174581,0.376326 -0.4161793,0.505788 -0.190081,0.129463 -0.3880339,0.193155 -0.5953952,0.193155 -0.4492825,0 -0.7816341,-0.120751 -0.9976353,-0.362414 -0.2073612,-0.241664 -0.310641,-0.538233 -0.310641,-0.892097 0,-0.155355 0.020521,-0.327858 0.063721,-0.517736 0.164161,-0.655943 0.3932328,-1.385758 0.6869944,-2.188425 0.2937618,-0.802668 0.6314123,-1.6393 1.0115745,-2.511014 0.3888022,-0.871715 0.8125191,-1.756781 1.2704417,-2.654388 0.4665629,-0.897607 0.9452275,-1.768739 1.4377103,-2.614561 0.5011229,-0.854453 1.0109063,-1.658576 1.5293092,-2.409458 0.527043,-0.759514 1.045433,-1.435587 1.555196,-2.031115 0.146881,-0.1639848 0.327621,-0.3676698 0.543622,-0.6093338 0.224641,-0.241663 0.470926,-0.49179 0.738768,-0.750715 0.276481,-0.258925 0.562492,-0.514361 0.856254,-0.764655 0.302401,-0.258925 0.605625,-0.486494 0.908027,-0.685003 0.302401,-0.20714 0.595027,-0.371016 0.880149,-0.491848 0.285122,-0.129463 0.54862,-0.195146 0.790541,-0.195146 0.328323,0 0.626247,0.05706 0.894089,0.169259 0.276481,0.112201 0.510852,0.270769 0.700933,0.477909 0.198721,0.20714 0.348342,0.457268 0.452023,0.750716 0.112321,0.284817 0.169259,0.600628 0.169259,0.945862 0,0.146724 -0.01192,0.29335 -0.03784,0.440074 -0.01728,0.146725 -0.04509,0.298659 -0.07966,0.454014 l -1.43771,7.2224018 c 0.129601,-0.198509 0.31034,-0.465887 0.543622,-0.802489 0.233281,-0.345234 0.49678,-0.724737 0.790541,-1.139017 0.293762,-0.422911 0.600293,-0.857482 0.919975,-1.306285 0.319682,-0.457434 0.631513,-0.899305 0.933914,-1.322216 0.311042,-0.42291 0.597053,-0.805731 0.856255,-1.150964 0.2592,-0.353864 0.471059,-0.638492 0.63522,-0.854262 l 0.232987,-0.298694 c 0.15552,-0.1985088 0.344867,-0.4313858 0.569508,-0.6989418 0.224642,-0.267556 0.470927,-0.546875 0.738768,-0.840323 0.276482,-0.293449 0.5658,-0.583384 0.868202,-0.868202 0.302402,-0.284817 0.608933,-0.540253 0.919974,-0.764654 0.311043,-0.224402 0.617574,-0.405529 0.919976,-0.543622 0.302401,-0.146724 0.59172,-0.219042 0.868202,-0.219042 z"
     id="rect9122"
     inkscape:connector-curvature="0" />
</svg>
