<?xml version="1.0" encoding="UTF-8" standalone="no"?>
<!-- Generator: Adobe Illustrator 17.0.0, SVG Export Plug-In . SVG Version: 6.00 Build 0)  -->

<svg
   xmlns:dc="http://purl.org/dc/elements/1.1/"
   xmlns:cc="http://creativecommons.org/ns#"
   xmlns:rdf="http://www.w3.org/1999/02/22-rdf-syntax-ns#"
   xmlns:svg="http://www.w3.org/2000/svg"
   xmlns="http://www.w3.org/2000/svg"
   xmlns:sodipodi="http://sodipodi.sourceforge.net/DTD/sodipodi-0.dtd"
   xmlns:inkscape="http://www.inkscape.org/namespaces/inkscape"
   version="1.1"
   id="Capa_1"
   x="0px"
   y="0px"
   width="64px"
   height="64px"
   viewBox="0 0 64 64"
   enable-background="new 0 0 64 64"
   xml:space="preserve"
   inkscape:version="0.91 r13725"
   sodipodi:docname="cross27.svg"><metadata
     id="metadata7595"><rdf:RDF><cc:Work
         rdf:about=""><dc:format>image/svg+xml</dc:format><dc:type
           rdf:resource="http://purl.org/dc/dcmitype/StillImage" /><dc:title /></cc:Work></rdf:RDF></metadata><defs
     id="defs7593" /><sodipodi:namedview
     pagecolor="#ffffff"
     bordercolor="#666666"
     borderopacity="1"
     objecttolerance="10"
     gridtolerance="10"
     guidetolerance="10"
     inkscape:pageopacity="0"
     inkscape:pageshadow="2"
     inkscape:window-width="1536"
     inkscape:window-height="801"
     id="namedview7591"
     showgrid="false"
     inkscape:zoom="3.6875"
     inkscape:cx="-35.389831"
     inkscape:cy="32"
     inkscape:window-x="-8"
     inkscape:window-y="-8"
     inkscape:window-maximized="1"
     inkscape:current-layer="Capa_1" /><path
     inkscape:connector-curvature="0"
     d="m 8.5046626,54.811387 1.6612744,1.685006 c 0.611591,0.620294 1.610012,0.627391 2.230279,0.01617 l 3.626963,-3.575856 3.574519,3.626332 c 0.611987,0.620293 1.610407,0.627391 2.230674,0.01577 l 1.684144,-1.660163 c 0.620267,-0.611618 0.627759,-1.610082 0.01577,-2.23077 l -3.57452,-3.626334 3.626964,-3.575856 c 0.620267,-0.611619 0.627759,-1.610082 0.01577,-2.23077 l -1.660479,-1.685006 c -0.611985,-0.620294 -1.610406,-0.627392 -2.230673,-0.01617 l -3.627358,3.575856 -3.574519,-3.626726 c -0.611986,-0.620293 -1.610406,-0.627391 -2.230673,-0.01617 l -1.6841449,1.660557 c -0.6202668,0.611618 -0.6277589,1.610082 -0.016169,2.230769 L 12.147399,49.00476 8.5208298,52.581011 C 7.900563,53.192235 7.8930711,54.191093 8.504661,54.811387 Z"
     id="path7589"
     style="fill:#d40000" /></svg>