<?xml version="1.0" encoding="UTF-8" standalone="no"?>
<!-- Generator: Adobe Illustrator 17.0.0, SVG Export Plug-In . SVG Version: 6.00 Build 0)  -->

<svg
   xmlns:dc="http://purl.org/dc/elements/1.1/"
   xmlns:cc="http://creativecommons.org/ns#"
   xmlns:rdf="http://www.w3.org/1999/02/22-rdf-syntax-ns#"
   xmlns:svg="http://www.w3.org/2000/svg"
   xmlns="http://www.w3.org/2000/svg"
   xmlns:sodipodi="http://sodipodi.sourceforge.net/DTD/sodipodi-0.dtd"
   xmlns:inkscape="http://www.inkscape.org/namespaces/inkscape"
   version="1.1"
   id="Capa_1"
   x="0px"
   y="0px"
   width="32"
   height="32"
   viewBox="0 0 32 32"
   enable-background="new 0 0 64 64"
   xml:space="preserve"
   inkscape:version="0.91 r13725"
   sodipodi:docname="screwdriver6.svg"><metadata
     id="metadata5955"><rdf:RDF><cc:Work
         rdf:about=""><dc:format>image/svg+xml</dc:format><dc:type
           rdf:resource="http://purl.org/dc/dcmitype/StillImage" /><dc:title></dc:title></cc:Work></rdf:RDF></metadata><defs
     id="defs5953" /><sodipodi:namedview
     pagecolor="#ffffff"
     bordercolor="#666666"
     borderopacity="1"
     objecttolerance="10"
     gridtolerance="10"
     guidetolerance="10"
     inkscape:pageopacity="0"
     inkscape:pageshadow="2"
     inkscape:window-width="1536"
     inkscape:window-height="801"
     id="namedview5951"
     showgrid="false"
     inkscape:zoom="11.348908"
     inkscape:cx="15.050847"
     inkscape:cy="16"
     inkscape:window-x="-8"
     inkscape:window-y="-8"
     inkscape:window-maximized="1"
     inkscape:current-layer="Capa_1" /><rect
     style="opacity:1;fill:none;fill-opacity:1;fill-rule:nonzero;stroke:none;stroke-width:1;stroke-linecap:round;stroke-miterlimit:4;stroke-dasharray:none;stroke-dashoffset:0"
     id="rect8971"
     width="32"
     height="32"
     x="0.17880885"
     y="0.13779795" /><path
     d="m 24.784293,20.62757 -3.801368,-4.461219 c -0.423907,-0.497764 -0.363956,-1.243343 0.134225,-1.665429 l 4.078313,-3.460363 c 0.497655,-0.422619 1.114679,-0.717334 1.377301,-0.657644 0.262621,0.05863 0.843039,-0.274463 1.296656,-0.7445151 l 0.914663,-0.948095 C 29.2377,8.2202542 29.304549,7.4661472 28.933161,7.0078212 28.561777,6.5484302 27.81689,6.4647592 27.269897,6.8202282 l -1.099294,0.714135 c -0.547524,0.355471 -0.991593,0.844173 -0.991593,1.09199 0,0.2478157 -0.403215,0.7908777 -0.900868,1.2140307 L 20.14253,13.358304 c -0.497655,0.422618 -1.244665,0.36293 -1.668572,-0.134827 L 17.243089,11.77921 c -0.423907,-0.497763 -0.495,-1.284378 -0.194179,-1.7805441 0.300288,-0.496165 0.811206,-1.3920317 0.812797,-2.0470127 0.0016,-0.786615 -0.364486,-1.91964 -1.92111,-3.1960247 -1.699341,-1.394697 -3.216175,-1.649975 -4.197685,-1.614802 -0.651513,0.02291 -0.821288,0.618742 -0.4064,1.123966 l 2.074437,2.5250577 c 0.414889,0.505225 0.401626,1.313158 -0.0297,1.804527 l -0.04509,0.05169 c -0.430803,0.4908357 -1.230868,1.1660667 -1.786881,1.5087458 l -0.02122,0.01284 C 10.972047,10.5098 10.171453,10.388822 9.7401169,9.8979869 L 7.5829029,7.4437642 c -0.431335,-0.490836 -1.043586,-0.416224 -1.168265,0.226499 -0.152267,0.781285 -0.172958,1.9382927 0.404277,3.3564388 0.246705,0.60595 0.777782,1.531129 1.188426,2.039551 0.793698,0.982737 1.571479,1.334476 2.1763031,1.429872 0.643553,0.10179 1.566174,-0.252613 2.054807,-0.450866 0.489164,-0.198252 1.205933,0.02824 1.615516,0.538268 l 1.226093,1.526865 c 0.409051,0.509489 0.492347,1.134623 0.185692,1.395231 -0.306657,0.261139 -0.89291,0.06396 -1.309389,-0.439675 l -0.05624,-0.06822 c -0.415949,-0.503623 -0.886013,-0.912387 -1.04889,-0.912387 -0.162879,0 -0.282252,0.530806 -0.266336,1.185787 l 0.0084,0.367726 c 0.01592,0.654981 -0.485451,1.089324 -1.118922,0.971012 C 10.84037,18.49155 9.9182799,18.73244 9.4147909,19.148133 l -5.323996,4.389273 c -0.503489,0.415691 -0.91201,1.11384 -0.91201,1.559376 0,0.446069 0.33,1.221493 0.73746,1.733113 l 1.016528,1.276385 c 0.40746,0.51162 1.089743,0.970478 1.524261,1.024839 0.434518,0.05543 1.192669,-0.240355 1.694036,-0.659245 l 5.3335881,-4.461219 c 0.500837,-0.41889 0.927927,-1.288643 0.953392,-1.94309 l 0.0059,-0.149224 c 0.02546,-0.65498 0.561848,-1.069605 1.198504,-0.92731 l 0.05624,0.0117 c 0.636657,0.142301 1.152349,0.102862 1.152349,-0.08793 0,-0.190793 -0.265804,-0.668304 -0.594743,-1.065875 -0.328409,-0.39704 -0.3491,-0.927313 -0.04669,-1.184188 0.302412,-0.256875 0.879647,-0.05223 1.28923,0.45726 l 3.552542,4.42498 c 0.409051,0.509488 0.699791,1.100515 0.674855,1.323816 -0.01479,0.13377 -0.02281,0.269134 -0.02281,0.406632 0,2.074192 1.673345,3.754544 3.737702,3.754544 2.06436,0 3.737704,-1.680352 3.737704,-3.754544 0,-1.627059 -1.030852,-3.009499 -2.472348,-3.529646 -0.612832,-0.221701 -1.498315,-0.62247 -1.922222,-1.120234 z m 0.656816,6.675574 c -1.113616,0 -2.016077,-0.907059 -2.016077,-2.025694 0,-1.118637 0.902461,-2.025696 2.016077,-2.025696 1.11415,0 2.016609,0.907059 2.016609,2.025696 0,1.118635 -0.902459,2.025694 -2.016609,2.025694 z"
     id="path5949"
     inkscape:connector-curvature="0"
     style="fill:#5599ff;fill-opacity:0.98431373" /></svg>