<?xml version="1.0" encoding="UTF-8" standalone="no"?>
<!-- Generator: Adobe Illustrator 17.0.0, SVG Export Plug-In . SVG Version: 6.00 Build 0)  -->

<svg
   xmlns:dc="http://purl.org/dc/elements/1.1/"
   xmlns:cc="http://creativecommons.org/ns#"
   xmlns:rdf="http://www.w3.org/1999/02/22-rdf-syntax-ns#"
   xmlns:svg="http://www.w3.org/2000/svg"
   xmlns="http://www.w3.org/2000/svg"
   xmlns:sodipodi="http://sodipodi.sourceforge.net/DTD/sodipodi-0.dtd"
   xmlns:inkscape="http://www.inkscape.org/namespaces/inkscape"
   version="1.1"
   id="Capa_1"
   x="0px"
   y="0px"
   width="32"
   height="32"
   viewBox="0 0 32 32"
   enable-background="new 0 0 64 64"
   xml:space="preserve"
   inkscape:version="0.91 r13725"
   sodipodi:docname="bulb9.svg"><metadata
     id="metadata6510"><rdf:RDF><cc:Work
         rdf:about=""><dc:format>image/svg+xml</dc:format><dc:type
           rdf:resource="http://purl.org/dc/dcmitype/StillImage" /><dc:title></dc:title></cc:Work></rdf:RDF></metadata><defs
     id="defs6508" /><sodipodi:namedview
     pagecolor="#ffffff"
     bordercolor="#666666"
     borderopacity="1"
     objecttolerance="10"
     gridtolerance="10"
     guidetolerance="10"
     inkscape:pageopacity="0"
     inkscape:pageshadow="2"
     inkscape:window-width="1536"
     inkscape:window-height="801"
     id="namedview6506"
     showgrid="false"
     inkscape:zoom="14.89812"
     inkscape:cx="16.090715"
     inkscape:cy="15.773135"
     inkscape:window-x="-8"
     inkscape:window-y="-8"
     inkscape:window-maximized="1"
     inkscape:current-layer="Capa_1" /><g
     id="g8979"
     transform="translate(-10.797717,-15.88858)"><rect
       y="15.905291"
       x="10.728145"
       height="32"
       width="32"
       id="rect8410"
       style="opacity:1;fill:none;fill-opacity:1;fill-rule:nonzero;stroke:none;stroke-width:1.26718652;stroke-linecap:round;stroke-miterlimit:4;stroke-dasharray:none;stroke-dashoffset:0" /><g
       transform="matrix(0.80356946,0,0,0.80356946,3.0823995,9.9258389)"
       id="g8412"><path
         d="m 37.641087,26.711697 c 1.067628,-1.576692 1.692689,-3.476997 1.692689,-5.525809 0,-5.471873 -4.436015,-9.907888 -9.907888,-9.907888 -5.471873,0 -9.907888,4.436015 -9.907888,9.907888 0,2.03108 0.611762,3.918824 1.659442,5.491083 0.98414,1.47547 2.826814,3.623288 3.626243,5.207367 l 1.486552,2.945768 2.80391,0 0.629495,0 2.805388,0 1.474731,-2.924341 c 0.797211,-1.583342 2.642843,-3.725248 3.637326,-5.194068 z"
         id="path6498"
         style="fill:#ffcc00"
         inkscape:connector-curvature="0" /><path
         d="m 29.256693,43.426548 c 1.512412,0 2.737414,-1.22648 2.737414,-2.738892 l -5.477784,0 c 0,1.512412 1.227957,2.738892 2.74037,2.738892 z"
         id="path6500"
         style="fill:#ff6600"
         inkscape:connector-curvature="0" /><path
         d="m 26.412885,38.027081 5.815436,-1.103832 c 0.435917,-0.08201 0.72185,-0.503152 0.639099,-0.93907 -0.08349,-0.435178 -0.495025,-0.718155 -0.93907,-0.639099 l -5.815435,1.10457 c -0.435918,0.08201 -0.72185,0.502414 -0.637622,0.93907 0.07241,0.384938 0.410058,0.653138 0.787607,0.653138 0.04877,-7.39e-4 0.09901,-0.0051 0.149985,-0.01477 z"
         id="path6502"
         style="fill:#ff6600"
         inkscape:connector-curvature="0" /><path
         d="m 33.035876,38.167461 c -0.08201,-0.435178 -0.495025,-0.716678 -0.938331,-0.639099 l -5.815435,1.10457 c -0.435917,0.08201 -0.723327,0.502414 -0.6391,0.938332 0.07241,0.384937 0.410058,0.653876 0.787608,0.653876 0.04877,0 0.09974,-0.0051 0.149985,-0.01404 l 5.815435,-1.104571 c 0.436656,-0.08275 0.722588,-0.502413 0.639838,-0.93907 z"
         id="path6504"
         style="fill:#ff6600"
         inkscape:connector-curvature="0" /></g></g></svg>