<?xml version="1.0" encoding="UTF-8" standalone="no"?>
<!-- Created with Inkscape (http://www.inkscape.org/) -->

<svg
   xmlns:dc="http://purl.org/dc/elements/1.1/"
   xmlns:cc="http://creativecommons.org/ns#"
   xmlns:rdf="http://www.w3.org/1999/02/22-rdf-syntax-ns#"
   xmlns:svg="http://www.w3.org/2000/svg"
   xmlns="http://www.w3.org/2000/svg"
   xmlns:sodipodi="http://sodipodi.sourceforge.net/DTD/sodipodi-0.dtd"
   xmlns:inkscape="http://www.inkscape.org/namespaces/inkscape"
   width="210mm"
   height="297mm"
   viewBox="0 0 744.09448819 1052.3622047"
   id="svg10601"
   version="1.1"
   inkscape:version="0.91 r13725"
   sodipodi:docname="logo_a11y.svg">
  <defs
     id="defs10603" />
  <sodipodi:namedview
     id="base"
     pagecolor="#ffffff"
     bordercolor="#666666"
     borderopacity="1.0"
     inkscape:pageopacity="0.0"
     inkscape:pageshadow="2"
     inkscape:zoom="0.31612645"
     inkscape:cx="495.09087"
     inkscape:cy="388.62248"
     inkscape:document-units="px"
     inkscape:current-layer="layer1"
     showgrid="false"
     inkscape:window-width="1536"
     inkscape:window-height="801"
     inkscape:window-x="-8"
     inkscape:window-y="-8"
     inkscape:window-maximized="1" />
  <metadata
     id="metadata10606">
    <rdf:RDF>
      <cc:Work
         rdf:about="">
        <dc:format>image/svg+xml</dc:format>
        <dc:type
           rdf:resource="http://purl.org/dc/dcmitype/StillImage" />
        <dc:title></dc:title>
      </cc:Work>
    </rdf:RDF>
  </metadata>
  <g
     inkscape:label="Layer 1"
     inkscape:groupmode="layer"
     id="layer1">
    <rect
       inkscape:export-ydpi="90"
       inkscape:export-xdpi="90"
       inkscape:export-filename="h:\zgodnosc_16_kolor.png"
       style="fill:#00589d;fill-opacity:0.97647059;fill-rule:evenodd;stroke:#000000;stroke-width:0;stroke-linejoin:miter;stroke-miterlimit:4;stroke-dasharray:none;stroke-opacity:1"
       id="rect10557"
       width="123.7619"
       height="115.30852"
       x="159.54942"
       y="289.29401"
       rx="5.1025319"
       ry="5.6294613" />
    <g
       transform="matrix(0.07538444,0,0,0.07538444,327.14941,327.45782)"
       id="g10559">
      <path
         inkscape:connector-curvature="0"
         id="path10561"
         d="m -1412.7441,-390.23438 a 658.92729,658.92729 0 0 0 -582.5782,351.914068 132.52024,132.52024 0 0 1 42.0508,14.626953 614.66153,614.66153 0 0 1 540.5274,-322.271481 614.66153,614.66153 0 0 1 536.58199,316.30859 132.52024,132.52024 0 0 1 42.25977,-16.363281 658.92729,658.92729 0 0 0 -578.84176,-344.214849 z m 3.5586,167.19336 a 184.35979,184.35979 0 0 0 -184.3614,184.361332 184.35979,184.35979 0 0 0 184.3614,184.359378 184.35979,184.35979 0 0 0 184.3574,-184.359378 184.35979,184.35979 0 0 0 -184.3574,-184.361332 z m 0,43.29688 a 141.06317,141.06317 0 0 1 141.0625,141.064452 141.06317,141.06317 0 0 1 -141.0625,141.062498 141.06317,141.06317 0 0 1 -141.0625,-141.062498 141.06317,141.06317 0 0 1 141.0625,-141.064452 z m -618.0918,171.1914056 a 95.359056,95.359056 0 0 0 -95.3594,95.3554684 95.359056,95.359056 0 0 0 95.3594,95.359376 95.359056,95.359056 0 0 0 62.8339,-23.73242 l -5.7773,6.99219 c 178.677,91.28395 349.97,133.51233 515.8359,137.71484 l -270.1718,412.98437 a 95.359056,95.359056 0 0 0 -33.543,-6.14648 95.359056,95.359056 0 0 0 -95.3594,95.35742 95.359056,95.359056 0 0 0 95.3594,95.35938 95.359056,95.359056 0 0 0 95.3574,-95.35938 95.359056,95.359056 0 0 0 -26.0215,-65.28906 l 270.3789,-412.72461 276.4356,414.6543 a 95.359056,95.359056 0 0 0 -24.25,63.35937 95.359056,95.359056 0 0 0 95.3594,95.35938 95.359056,95.359056 0 0 0 95.35738,-95.35938 95.359056,95.359056 0 0 0 -95.35738,-95.35742 95.359056,95.359056 0 0 0 -34.1856,6.45117 l -274.9512,-413.93359 c 181.659,-7.71731 357.0425,-59.91294 528.79105,-141.70703 a 95.359056,95.359056 0 0 0 60.0918,21.37695 95.359056,95.359056 0 0 0 95.35547,-95.359376 95.359056,95.359056 0 0 0 -95.35547,-95.3554684 95.359056,95.359056 0 0 0 -95.35937,95.3554684 95.359056,95.359056 0 0 0 8.63476,39.425786 l -0.12305,-0.1543 C -1286.9375,307.50153 -1576.6632,301.09041 -1941.623,130.8125 l -3.6153,4.37695 a 95.359056,95.359056 0 0 0 13.3164,-48.386716 95.359056,95.359056 0 0 0 -95.3554,-95.3554684 z m 0,44.2500004 a 51.107465,51.107465 0 0 1 51.1074,51.105468 51.107465,51.107465 0 0 1 -51.1074,51.111326 51.107465,51.107465 0 0 1 -51.1094,-51.111326 51.107465,51.107465 0 0 1 51.1094,-51.105468 z m 1236.18355,0 a 51.107465,51.107465 0 0 1 51.10547,51.105468 51.107465,51.107465 0 0 1 -51.10547,51.111326 51.107465,51.107465 0 0 1 -51.11133,-51.111326 51.107465,51.107465 0 0 1 51.11133,-51.105468 z m 34.13867,170.285154 a 132.52024,132.52024 0 0 1 -43.77539,10.08985 614.66153,614.66153 0 0 1 2.64844,52.62304 614.66153,614.66153 0 0 1 -181.0957,435.21094 132.52024,132.52024 0 0 1 22.24023,39.5957 658.92729,658.92729 0 0 0 203.12109,-474.80664 658.92729,658.92729 0 0 0 -3.13867,-62.71289 z m -1312.11332,8.27735 a 658.92729,658.92729 0 0 0 -2.6015,54.43554 658.92729,658.92729 0 0 0 199.5195,472.33008 132.52024,132.52024 0 0 1 24.1797,-38.7793 614.66153,614.66153 0 0 1 -179.4355,-433.55078 614.66153,614.66153 0 0 1 2.2226,-44.37109 132.52024,132.52024 0 0 1 -43.8848,-10.06445 z m 310.9688,539.96484 a 51.107465,51.107465 0 0 1 51.1074,51.10742 51.107465,51.107465 0 0 1 -51.1074,51.10938 51.107465,51.107465 0 0 1 -51.1094,-51.10938 51.107465,51.107465 0 0 1 51.1094,-51.10742 z m 687.2598,0 a 51.107465,51.107465 0 0 1 51.1074,51.10742 51.107465,51.107465 0 0 1 -51.1074,51.10938 51.107465,51.107465 0 0 1 -51.1094,-51.10938 51.107465,51.107465 0 0 1 51.1094,-51.10742 z m -557.1524,89.41211 a 132.52024,132.52024 0 0 1 -25.582,38.2793 658.92729,658.92729 0 0 0 240.8301,45.70703 658.92729,658.92729 0 0 0 238.3398,-45.35157 132.52024,132.52024 0 0 1 -26.5859,-37.04687 614.66153,614.66153 0 0 1 -211.7539,38.12891 614.66153,614.66153 0 0 1 -215.2481,-39.7168 z"
         style="opacity:1;fill:#ffffff;fill-opacity:1;stroke:none;stroke-width:2.5;stroke-miterlimit:4;stroke-dasharray:none" />
      <path
         inkscape:connector-curvature="0"
         id="path10563"
         d="m -1409.1875,-179.74414 a 141.06317,141.06317 0 0 0 -141.0625,141.062499 141.06317,141.06317 0 0 0 141.0625,141.064451 141.06317,141.06317 0 0 0 141.0625,-141.064451 141.06317,141.06317 0 0 0 -141.0625,-141.062499 z m -618.0918,215.441406 a 51.107464,51.107464 0 0 0 -51.1074,51.107422 51.107464,51.107464 0 0 0 51.1074,51.107422 51.107464,51.107464 0 0 0 51.1074,-51.107422 51.107464,51.107464 0 0 0 -51.1074,-51.107422 z m 1236.1836,0 a 51.107464,51.107464 0 0 0 -51.10742,51.107422 51.107464,51.107464 0 0 0 51.10742,51.107422 51.107464,51.107464 0 0 0 51.10742,-51.107422 51.107464,51.107464 0 0 0 -51.10742,-51.107422 z m -967.0059,718.529294 a 51.107464,51.107464 0 0 0 -51.1074,51.10742 51.107464,51.107464 0 0 0 51.1074,51.10743 51.107464,51.107464 0 0 0 51.1075,-51.10743 51.107464,51.107464 0 0 0 -51.1075,-51.10742 z m 687.2598,0 a 51.107464,51.107464 0 0 0 -51.1074,51.10742 51.107464,51.107464 0 0 0 51.1074,51.10743 51.107464,51.107464 0 0 0 51.1074,-51.10743 51.107464,51.107464 0 0 0 -51.1074,-51.10742 z"
         style="opacity:1;fill:#4ac8f5;fill-opacity:1;stroke:none;stroke-width:2.5;stroke-miterlimit:4;stroke-dasharray:none" />
    </g>
  </g>
</svg>
