<?xml version="1.0" encoding="UTF-8" standalone="no"?>
<!-- Created with Inkscape (http://www.inkscape.org/) -->

<svg
   xmlns:dc="http://purl.org/dc/elements/1.1/"
   xmlns:cc="http://creativecommons.org/ns#"
   xmlns:rdf="http://www.w3.org/1999/02/22-rdf-syntax-ns#"
   xmlns:svg="http://www.w3.org/2000/svg"
   xmlns="http://www.w3.org/2000/svg"
   xmlns:xlink="http://www.w3.org/1999/xlink"
   xmlns:sodipodi="http://sodipodi.sourceforge.net/DTD/sodipodi-0.dtd"
   xmlns:inkscape="http://www.inkscape.org/namespaces/inkscape"
   width="120"
   height="90"
   viewBox="0 0 120 90.000001"
   id="svg10871"
   version="1.1"
   inkscape:version="0.91 r13725"
   sodipodi:docname="logo_kods.svg">
  <defs
     id="defs10873">
    <linearGradient
       inkscape:collect="always"
       xlink:href="#id3"
       id="linearGradient10781"
       gradientUnits="userSpaceOnUse"
       x1="8767.5498"
       y1="9229.4697"
       x2="8365.0498"
       y2="12244.3" />
    <linearGradient
       id="id3"
       gradientUnits="userSpaceOnUse"
       x1="10198.1"
       y1="11012.8"
       x2="9514.5303"
       y2="10451.2">
      <stop
         offset="0"
         style="stop-opacity:1; stop-color:#F20823"
         id="stop10125" />
      <stop
         offset="0.529412"
         style="stop-opacity:1; stop-color:#F03D20"
         id="stop10127" />
      <stop
         offset="1"
         style="stop-opacity:1; stop-color:#ED731D"
         id="stop10129" />
    </linearGradient>
    <linearGradient
       inkscape:collect="always"
       xlink:href="#id4"
       id="linearGradient10783"
       gradientUnits="userSpaceOnUse"
       x1="6103.1401"
       y1="13920.5"
       x2="6350.1802"
       y2="11998" />
    <linearGradient
       id="id4"
       gradientUnits="userSpaceOnUse"
       x1="5772.6299"
       y1="12233.5"
       x2="6590.9702"
       y2="11093.2">
      <stop
         offset="0"
         style="stop-opacity:1; stop-color:#68B436"
         id="stop10132" />
      <stop
         offset="0.501961"
         style="stop-opacity:1; stop-color:#5DB139"
         id="stop10134" />
      <stop
         offset="1"
         style="stop-opacity:1; stop-color:#B0CB1F"
         id="stop10136" />
    </linearGradient>
    <linearGradient
       inkscape:collect="always"
       xlink:href="#id2"
       id="linearGradient10785"
       gradientUnits="userSpaceOnUse"
       x1="2968.8999"
       y1="10150"
       x2="4805.1602"
       y2="11323.8" />
    <linearGradient
       id="id2"
       gradientUnits="userSpaceOnUse"
       x1="2968.8999"
       y1="10150"
       x2="4805.1602"
       y2="11323.8">
      <stop
         offset="0"
         style="stop-opacity:1; stop-color:#FAE206"
         id="stop10118" />
      <stop
         offset="0.529412"
         style="stop-opacity:1; stop-color:#F4AD11"
         id="stop10120" />
      <stop
         offset="1"
         style="stop-opacity:1; stop-color:#EE781C"
         id="stop10122" />
    </linearGradient>
    <linearGradient
       inkscape:collect="always"
       xlink:href="#id0"
       id="linearGradient10787"
       gradientUnits="userSpaceOnUse"
       x1="6924.02"
       y1="9815.2598"
       x2="5529.2998"
       y2="6979.2402" />
    <linearGradient
       id="id0"
       gradientUnits="userSpaceOnUse"
       x1="6924.02"
       y1="9815.2598"
       x2="5529.2998"
       y2="6979.2402">
      <stop
         offset="0"
         style="stop-opacity:1; stop-color:#1F4A78"
         id="stop10110" />
      <stop
         offset="0.501961"
         style="stop-opacity:1; stop-color:#186BAF"
         id="stop10112" />
      <stop
         offset="1"
         style="stop-opacity:1; stop-color:#1D558B"
         id="stop10114" />
    </linearGradient>
    <linearGradient
       inkscape:collect="always"
       xlink:href="#id3"
       id="linearGradient10789"
       gradientUnits="userSpaceOnUse"
       x1="10198.1"
       y1="11012.8"
       x2="9514.5303"
       y2="10451.2" />
    <linearGradient
       inkscape:collect="always"
       xlink:href="#id4"
       id="linearGradient10791"
       gradientUnits="userSpaceOnUse"
       x1="5772.6299"
       y1="12233.5"
       x2="6590.9702"
       y2="11093.2" />
    <linearGradient
       inkscape:collect="always"
       xlink:href="#id2"
       id="linearGradient10793"
       gradientUnits="userSpaceOnUse"
       x1="3050.4399"
       y1="10644.8"
       x2="2100.4199"
       y2="10819.2" />
    <linearGradient
       inkscape:collect="always"
       xlink:href="#id0"
       id="linearGradient10795"
       gradientUnits="userSpaceOnUse"
       x1="5454.1201"
       y1="6848.8799"
       x2="6909.48"
       y2="7402.3999" />
  </defs>
  <sodipodi:namedview
     id="base"
     pagecolor="#ffffff"
     bordercolor="#666666"
     borderopacity="1.0"
     inkscape:pageopacity="0.0"
     inkscape:pageshadow="2"
     inkscape:zoom="4.2483648"
     inkscape:cx="57.104938"
     inkscape:cy="33.76521"
     inkscape:document-units="px"
     inkscape:current-layer="layer1"
     showgrid="false"
     units="px"
     inkscape:window-width="1536"
     inkscape:window-height="801"
     inkscape:window-x="-8"
     inkscape:window-y="-8"
     inkscape:window-maximized="1" />
  <metadata
     id="metadata10876">
    <rdf:RDF>
      <cc:Work
         rdf:about="">
        <dc:format>image/svg+xml</dc:format>
        <dc:type
           rdf:resource="http://purl.org/dc/dcmitype/StillImage" />
        <dc:title></dc:title>
      </cc:Work>
    </rdf:RDF>
  </metadata>
  <g
     inkscape:label="Layer 1"
     inkscape:groupmode="layer"
     id="layer1"
     transform="translate(0,-962.36216)">
    <rect
       class="fil9"
       x="0"
       y="962.36218"
       width="120"
       height="90"
       id="rect10779"
       style="clip-rule:evenodd;fill:none;fill-rule:evenodd;image-rendering:optimizeQuality;shape-rendering:geometricPrecision;text-rendering:geometricPrecision" />
    <g
       style="clip-rule:evenodd;fill-rule:evenodd;image-rendering:optimizeQuality;shape-rendering:geometricPrecision;text-rendering:geometricPrecision"
       id="g10761"
       transform="matrix(0.01042233,0,0,0.01042233,-4.7852033,901.48702)">
      <path
         class="fil0"
         d="m 7705,10737 c 1,-210 9,-367 24,-469 3,-35 18,-67 47,-96 21,-21 53,-37 95,-46 292,-27 536,-57 730,-91 47,-147 99,-275 156,-384 l -468,-637 c -19,-23 -26,-55 -20,-94 3,-19 8,-37 16,-53 11,-16 23,-32 34,-47 l 224,-224 884,880 c -310,363 -466,812 -468,1261 2,449 158,898 468,1260 l -884,881 -224,-224 c -11,-16 -23,-32 -34,-48 -8,-15 -13,-33 -16,-52 -6,-39 1,-71 20,-95 l 468,-636 c -57,-109 -109,-237 -156,-385 -194,-33 -438,-63 -730,-90 -42,-10 -74,-25 -95,-47 -29,-28 -44,-60 -47,-96 -15,-102 -23,-258 -24,-468 z"
         id="path10763"
         style="fill:url(#linearGradient10781)"
         inkscape:connector-curvature="0" />
      <path
         class="fil1"
         d="m 6227,13820 c 210,0 366,-8 468,-24 36,-2 68,-18 96,-46 22,-21 37,-53 47,-96 27,-292 57,-535 90,-729 148,-47 276,-99 385,-156 l 636,468 c 24,18 55,25 94,19 20,-2 38,-8 53,-15 16,-11 32,-23 48,-35 l 224,-223 -881,-885 c -362,311 -811,467 -1260,469 -450,-2 -899,-158 -1261,-469 l -881,885 224,223 c 16,12 32,24 48,35 16,7 33,13 53,15 39,6 70,-1 94,-19 l 636,-468 c 109,57 238,109 385,156 34,194 64,437 91,729 9,43 25,75 46,96 29,28 61,44 96,46 102,16 258,24 469,24 z"
         id="path10765"
         style="fill:url(#linearGradient10783)"
         inkscape:connector-curvature="0" />
      <path
         class="fil2"
         d="m 4748,10737 c -1,-210 -9,-367 -24,-469 -2,-35 -18,-67 -46,-96 -22,-21 -53,-37 -96,-46 -292,-27 -535,-57 -730,-91 -47,-147 -99,-275 -155,-384 l 467,-637 c 19,-23 26,-55 20,-94 -3,-19 -8,-37 -15,-53 -12,-16 -23,-32 -35,-47 l -223,-224 -885,880 c 310,363 467,812 469,1261 -2,449 -159,898 -469,1260 l 885,881 223,-224 c 12,-16 23,-32 35,-48 7,-15 12,-33 15,-52 6,-39 -1,-71 -20,-95 l -467,-636 c 56,-109 108,-237 155,-385 195,-33 438,-63 730,-90 43,-10 74,-25 96,-47 28,-28 44,-60 46,-96 15,-102 23,-258 24,-468 z"
         id="path10767"
         style="fill:url(#linearGradient10785)"
         inkscape:connector-curvature="0" />
      <path
         class="fil3"
         d="m 6227,9258 c 210,0 366,-8 468,-24 36,-2 68,-18 96,-46 22,-21 37,-53 47,-96 27,-292 57,-535 90,-729 148,-47 276,-100 385,-156 l 636,468 c 24,18 55,25 94,19 20,-3 38,-8 53,-15 16,-11 32,-23 48,-35 l 224,-223 -881,-885 c -362,311 -811,467 -1260,469 -450,-2 -899,-158 -1261,-469 l -881,885 224,223 c 16,12 32,24 48,35 16,7 33,12 53,15 39,6 70,-1 94,-19 l 636,-468 c 109,56 238,109 385,156 34,194 64,437 91,729 9,43 25,75 46,96 29,28 61,44 96,46 102,16 258,24 469,24 z"
         id="path10769"
         style="fill:url(#linearGradient10787)"
         inkscape:connector-curvature="0" />
      <path
         class="fil4"
         d="m 10316,10303 c -237,-254 -634,-267 -888,-31 -254,237 -268,635 -31,889 236,254 634,267 888,31 254,-237 268,-635 31,-889 z"
         id="path10771"
         style="fill:url(#linearGradient10789)"
         inkscape:connector-curvature="0" />
      <path
         class="fil5"
         d="m 6610,11204 c 254,236 268,634 32,888 -237,254 -635,268 -889,31 -254,-237 -268,-634 -31,-888 237,-254 634,-268 888,-31 z"
         id="path10773"
         style="fill:url(#linearGradient10791)"
         inkscape:connector-curvature="0" />
      <path
         class="fil6"
         d="m 3035,10303 c -236,-254 -634,-267 -888,-31 -254,237 -268,635 -31,889 236,254 634,267 888,31 254,-237 268,-635 31,-889 z"
         id="path10775"
         style="fill:url(#linearGradient10793)"
         inkscape:connector-curvature="0" />
      <path
         class="fil7"
         d="m 6610,7585 c 254,-236 268,-634 32,-888 -237,-254 -635,-268 -889,-31 -254,237 -268,634 -31,888 237,254 634,268 888,31 z"
         id="path10777"
         style="fill:url(#linearGradient10795)"
         inkscape:connector-curvature="0" />
    </g>
  </g>
</svg>
