<?xml version="1.0" encoding="UTF-8" standalone="no"?>
<!-- Generator: Adobe Illustrator 17.0.0, SVG Export Plug-In . SVG Version: 6.00 Build 0)  -->

<svg
   xmlns:dc="http://purl.org/dc/elements/1.1/"
   xmlns:cc="http://creativecommons.org/ns#"
   xmlns:rdf="http://www.w3.org/1999/02/22-rdf-syntax-ns#"
   xmlns:svg="http://www.w3.org/2000/svg"
   xmlns="http://www.w3.org/2000/svg"
   xmlns:sodipodi="http://sodipodi.sourceforge.net/DTD/sodipodi-0.dtd"
   xmlns:inkscape="http://www.inkscape.org/namespaces/inkscape"
   version="1.1"
   id="Capa_1"
   x="0px"
   y="0px"
   width="16"
   height="16"
   viewBox="0 0 16 16"
   enable-background="new 0 0 64 64"
   xml:space="preserve"
   inkscape:version="0.91 r13725"
   sodipodi:docname="plus_guideline_icon.svg"><metadata
     id="metadata8994"><rdf:RDF><cc:Work
         rdf:about=""><dc:format>image/svg+xml</dc:format><dc:type
           rdf:resource="http://purl.org/dc/dcmitype/StillImage" /><dc:title /></cc:Work></rdf:RDF></metadata><defs
     id="defs8992" /><sodipodi:namedview
     pagecolor="#ffffff"
     bordercolor="#666666"
     borderopacity="1"
     objecttolerance="10"
     gridtolerance="10"
     guidetolerance="10"
     inkscape:pageopacity="0"
     inkscape:pageshadow="2"
     inkscape:window-width="1536"
     inkscape:window-height="801"
     id="namedview8990"
     showgrid="false"
     inkscape:zoom="2.8031162"
     inkscape:cx="-122.57757"
     inkscape:cy="46.039953"
     inkscape:window-x="-8"
     inkscape:window-y="-8"
     inkscape:window-maximized="1"
     inkscape:current-layer="Capa_1" /><g
     id="g10136"
     transform="matrix(0.25,0,0,0.25,-0.01007468,-0.02791775)"><g
       transform="matrix(0,1,1,0,0.02379163,-0.02379119)"
       id="g10132"><path
         inkscape:connector-curvature="0"
         d="m 24.802947,59.380525 c 2.089,-2.037 22.51,-23.479 22.51,-23.479 1.115,-1.087 1.674,-2.513 1.674,-3.939 0,-1.428 -0.559,-2.854 -1.674,-3.939 0,0 -20.421,-21.4409988 -22.51,-23.4799988 -2.089999,-2.0369999 -5.848002,-2.1759999 -8.078002,0 -2.229,2.174 -2.406,5.211 0,7.8789988 l 18.735002,19.54 -18.734002,19.539 c -2.406,2.67 -2.229,5.705 0,7.879 2.23,2.178 5.988003,2.039 8.077002,0 z"
         id="path9537"
         style="fill:#2a7fff" /><rect
         style="opacity:1;fill:none;fill-opacity:1;fill-rule:nonzero;stroke:none;stroke-width:1;stroke-linecap:round;stroke-miterlimit:4;stroke-dasharray:none;stroke-dashoffset:0"
         id="rect10130"
         width="64"
         height="64"
         x="-0.013432905"
         y="-0.037224539" /></g></g></svg>